<?xml version="1.0" encoding="iso-8859-1"?>
<!-- Generator: Adobe Illustrator 19.0.0, SVG Export Plug-In . SVG Version: 6.00 Build 0)  -->
<svg version="1.1" id="Capa_1" xmlns="http://www.w3.org/2000/svg" xmlns:xlink="http://www.w3.org/1999/xlink" x="0px" y="0px"
	 viewBox="0 0 512 512" style="enable-background:new 0 0 512 512;" xml:space="preserve">
<g>
	<g>
		<rect x="42.667" y="277.333" width="426.667" height="21.333"/>
	</g>
</g>
<g>
	<g>
		<path d="M341.248,457.344l-10.667-85.333c-0.667-5.337-5.203-9.342-10.581-9.344H192c-5.378,0.002-9.914,4.007-10.581,9.344
			l-10.667,85.333c-0.055,0.438-0.082,0.879-0.082,1.32c-0.002,5.891,4.773,10.668,10.664,10.67h149.333
			c0.441,0,0.882-0.028,1.32-0.082C337.832,468.521,341.979,463.19,341.248,457.344z M193.419,448l8-64h109.163l8,64H193.419z"/>
	</g>
</g>
<g>
	<g>
		<path d="M362.667,448H149.333c-5.891,0-10.667,4.776-10.667,10.667v32c0,11.782,9.551,21.333,21.333,21.333h192
			c11.782,0,21.333-9.551,21.333-21.333v-32C373.333,452.776,368.558,448,362.667,448z M352,490.667H160v-21.333h192V490.667z"/>
	</g>
</g>
<g>
	<g>
		<path d="M480,0H32C14.327,0,0,14.327,0,32v320c0,17.673,14.327,32,32,32h448c17.673,0,32-14.327,32-32V32
			C512,14.327,497.673,0,480,0z M490.667,352c0,5.891-4.776,10.667-10.667,10.667H32c-5.891,0-10.667-4.776-10.667-10.667V32
			c0-5.891,4.776-10.667,10.667-10.667h448c5.891,0,10.667,4.776,10.667,10.667V352z"/>
	</g>
</g>
<g>
	<g>
		<rect x="117.333" y="490.667" width="277.333" height="21.333"/>
	</g>
</g>
<g>
	<g>
		<path d="M448,53.333H64c-5.891,0-10.667,4.776-10.667,10.667v192h21.333V74.667h362.667V256h21.333V64
			C458.667,58.109,453.891,53.333,448,53.333z"/>
	</g>
</g>
<g>
	<g>
		<path d="M352,149.333V192h-85.333c-0.295-0.006-0.589-0.006-0.884,0c-11.538,0.244-20.693,9.795-20.449,21.333V256h21.333v-42.667
			H352c0.295,0.006,0.589,0.006,0.884,0c11.538-0.244,20.693-9.795,20.449-21.333v-42.667H352z"/>
	</g>
</g>
<g>
	<g>
		<path d="M160,192v-42.667h-21.333V192c-0.006,0.295-0.006,0.589,0,0.884c0.244,11.538,9.795,20.693,21.333,20.449h64V192H160z"/>
	</g>
</g>
<g>
	<g>
		<path d="M362.667,96c-17.673,0-32,14.327-32,32s14.327,32,32,32s32-14.327,32-32S380.34,96,362.667,96z M362.667,138.667
			c-5.891,0-10.667-4.776-10.667-10.667s4.776-10.667,10.667-10.667s10.667,4.776,10.667,10.667S368.558,138.667,362.667,138.667z"
			/>
	</g>
</g>
<g>
	<g>
		<path d="M256,96c-17.673,0-32,14.327-32,32s14.327,32,32,32s32-14.327,32-32S273.673,96,256,96z M256,138.667
			c-5.891,0-10.667-4.776-10.667-10.667s4.776-10.667,10.667-10.667s10.667,4.776,10.667,10.667S261.891,138.667,256,138.667z"/>
	</g>
</g>
<g>
	<g>
		<path d="M149.333,96c-17.673,0-32,14.327-32,32s14.327,32,32,32c17.673,0,32-14.327,32-32S167.006,96,149.333,96z
			 M149.333,138.667c-5.891,0-10.667-4.776-10.667-10.667s4.776-10.667,10.667-10.667c5.891,0,10.667,4.776,10.667,10.667
			S155.224,138.667,149.333,138.667z"/>
	</g>
</g>
<g>
	<g>
		<rect x="245.333" y="149.333" width="21.333" height="32"/>
	</g>
</g>
<g>
</g>
<g>
</g>
<g>
</g>
<g>
</g>
<g>
</g>
<g>
</g>
<g>
</g>
<g>
</g>
<g>
</g>
<g>
</g>
<g>
</g>
<g>
</g>
<g>
</g>
<g>
</g>
<g>
</g>
</svg>
